<?xml version="1.0" encoding="UTF-8" standalone="no"?>
<svg
   version="1.0"
   width="620.000000pt"
   height="620.000000pt"
   viewBox="0 0 620.000000 620.000000"
   preserveAspectRatio="xMidYMid meet"
   id="svg12"
   sodipodi:docname="cn-icon.svg"
   inkscape:version="1.1 (c4e8f9ed74, 2021-05-24)"
   xmlns:inkscape="http://www.inkscape.org/namespaces/inkscape"
   xmlns:sodipodi="http://sodipodi.sourceforge.net/DTD/sodipodi-0.dtd"
   xmlns="http://www.w3.org/2000/svg"
   xmlns:svg="http://www.w3.org/2000/svg">
  <defs
     id="defs16" />
  <sodipodi:namedview
     id="namedview14"
     pagecolor="#ffffff"
     bordercolor="#111111"
     borderopacity="1"
     inkscape:pageshadow="0"
     inkscape:pageopacity="0"
     inkscape:pagecheckerboard="1"
     inkscape:document-units="pt"
     showgrid="false"
     inkscape:zoom="0.9108871"
     inkscape:cx="192.66932"
     inkscape:cy="412.78442"
     inkscape:window-width="1920"
     inkscape:window-height="1026"
     inkscape:window-x="0"
     inkscape:window-y="28"
     inkscape:window-maximized="1"
     inkscape:current-layer="svg12" />
  <metadata
     id="metadata2">
Created by potrace 1.11, written by Peter Selinger 2001-2013
</metadata>
  <g
     transform="translate(0.000000,620.000000) scale(0.100000,-0.100000)"
     fill="#000000"
     stroke="none"
     id="g10">
    <path
       d="M3639 6181 c-57 -18 -163 -74 -187 -98 -7 -7 -21 -18 -31 -25 -25 -18 -72 -89 -65 -99 3 -5 1 -9 -4 -9 -4 0 -7 -35 -6 -77 1 -43 3 -78 4 -78 1 0 3 -9 5 -20 1 -11 5 -32 8 -46 3 -15 8 -52 12 -83 6 -49 14 -63 70 -128 35 -40 61 -76 59 -80 -3 -5 -1 -8 3 -8 5 0 14 -14 20 -30 10 -26 9 -33 -7 -48 -11 -10 -36 -24 -57 -31 -21 -8 -60 -25 -88 -38 -27 -13 -73 -33 -101 -44 -28 -11 -77 -39 -109 -64 -31 -25 -62 -45 -67 -45 -15 0 -138 -132 -132 -142 3 -4 0 -8 -6 -8 -6 0 -9 -4 -5 -9 12 -21 -16 -20 -62 3 -26 13 -88 41 -138 61 -49 21 -92 39 -94 41 -2 2 24 34 58 71 56 62 88 124 75 145 -3 4 0 8 6 8 6 0 9 4 6 8 -3 5 3 22 13 38 35 57 46 135 25 171 -7 12 -20 66 -28 120 -19 125 -26 144 -79 196 -98 98 -285 101 -442 6 -69 -42 -103 -93 -126 -192 -25 -103 -30 -134 -34 -227 -2 -41 -4 -75 -5 -75 -2 0 -10 -34 -15 -67 -2 -15 -11 -40 -19 -56 -8 -16 -14 -31 -11 -33 8 -8 -53 -85 -84 -106 -19 -13 -77 -36 -129 -52 l-95 -30 -51 29 c-28 15 -90 42 -137 58 -82 29 -361 102 -390 102 -26 0 -40 17 -49 55 -10 44 -4 65 19 65 45 1 78 64 72 140 -1 28 -1 101 1 210 2 134 -7 177 -44 208 -18 15 -40 34 -48 42 -43 41 -143 112 -170 122 -23 7 -48 7 -88 0 -31 -6 -77 -14 -102 -17 -24 -3 -92 -26 -151 -51 -101 -42 -108 -47 -132 -92 -32 -59 -77 -188 -77 -219 0 -13 8 -40 19 -61 13 -26 17 -51 14 -85 -2 -27 0 -54 6 -61 12 -15 21 -72 13 -81 -15 -15 -8 -37 16 -48 15 -6 29 -14 32 -17 38 -39 86 -70 109 -70 38 0 49 -16 48 -72 l0 -46 -163 -78 c-90 -42 -174 -89 -187 -103 -20 -21 -34 -52 -41 -91 -1 -3 -4 -9 -7 -15 -4 -5 -15 -43 -25 -82 -10 -40 -22 -73 -27 -73 -4 0 -6 -4 -3 -9 3 -5 -1 -28 -8 -52 -8 -24 -24 -78 -36 -119 -12 -41 -25 -82 -28 -90 -3 -8 -6 -18 -7 -22 -2 -5 -3 -9 -4 -10 -2 -2 -5 -14 -8 -28 -7 -39 -11 -55 -13 -55 -1 0 -3 -7 -5 -15 -2 -8 -8 -28 -13 -45 -17 -58 6 -119 56 -146 12 -7 22 -19 22 -26 0 -8 4 -12 9 -9 5 3 19 -8 32 -25 54 -71 187 -228 235 -279 l53 -55 -20 -32 c-11 -18 -18 -37 -15 -42 4 -5 2 -12 -3 -16 -5 -3 -10 -13 -10 -23 0 -9 -3 -42 -5 -72 -3 -30 -6 -62 -6 -70 -1 -8 -8 -82 -16 -164 -20 -207 -18 -341 7 -456 11 -52 20 -104 20 -115 0 -10 5 -25 11 -32 6 -7 8 -13 5 -13 -4 0 0 -18 8 -39 7 -22 16 -52 19 -68 7 -39 32 -130 50 -181 9 -24 15 -46 15 -50 -1 -4 0 -9 1 -12 1 -3 4 -18 6 -35 3 -16 12 -53 20 -81 8 -28 17 -68 20 -90 3 -21 8 -52 11 -69 9 -49 13 -525 5 -525 -4 0 -8 -8 -9 -17 -1 -10 -7 -64 -14 -119 -11 -84 -10 -114 1 -175 15 -82 16 -87 20 -94 1 -3 3 -8 4 -12 1 -5 10 -31 19 -59 10 -28 19 -59 21 -70 2 -10 16 -65 30 -122 15 -57 24 -107 21 -112 -4 -6 -2 -10 3 -10 5 0 10 -21 10 -46 1 -25 6 -53 10 -62 12 -24 5 -216 -11 -313 -4 -23 -28 -58 -86 -124 -28 -32 -51 -64 -51 -71 0 -24 47 -45 131 -60 46 -8 88 -19 93 -24 19 -19 62 -10 111 25 l50 36 11 92 c6 51 8 146 5 212 -15 339 -3 1003 25 1315 10 124 3 774 -9 787 -3 3 -2 15 2 27 4 11 6 38 4 58 -3 45 13 59 27 23 5 -14 9 -29 9 -33 -1 -4 0 -9 1 -12 2 -7 8 -31 15 -63 3 -16 13 -54 22 -85 8 -32 16 -67 17 -79 0 -13 4 -23 9 -23 4 0 7 -11 7 -24 0 -14 6 -53 14 -88 30 -130 36 -235 39 -727 1 -259 -1 -356 -11 -390 -17 -58 -39 -407 -37 -573 2 -111 5 -132 26 -175 26 -52 34 -55 107 -36 50 12 127 93 141 148 8 29 0 310 -9 310 -3 0 -10 102 -12 208 -2 59 1 107 5 107 5 0 6 4 2 9 -3 5 -2 12 3 15 5 3 9 0 9 -7 1 -14 11 -66 24 -126 18 -82 20 -206 3 -240 -29 -59 10 -187 65 -216 34 -17 37 -28 16 -65 -8 -14 -14 -44 -15 -67 0 -34 6 -48 37 -81 21 -22 58 -50 83 -62 46 -24 91 -53 124 -82 11 -10 28 -20 38 -24 10 -3 18 -9 18 -13 0 -13 105 -60 172 -77 85 -22 237 -16 293 11 32 16 41 26 43 50 3 37 0 40 -66 90 -30 22 -60 52 -67 66 -10 18 -25 28 -47 32 -41 6 -144 65 -177 101 l-25 27 40 -15 c21 -8 68 -26 103 -41 36 -15 125 -40 198 -56 198 -43 291 -38 356 21 l32 29 -18 33 c-26 49 -82 75 -331 154 -66 21 -98 37 -121 61 l-32 33 28 58 c16 31 29 65 29 75 0 31 -40 97 -65 109 -23 10 -53 68 -35 68 4 0 7 18 6 40 -2 22 0 40 3 40 3 0 7 12 7 28 2 34 4 40 55 213 36 122 42 158 43 239 1 52 3 97 7 100 11 11 39 79 39 98 0 24 20 82 29 82 23 0 34 91 14 122 -3 5 2 17 11 27 9 10 18 27 20 37 4 19 49 99 88 156 10 15 18 34 18 42 0 8 4 16 9 18 7 3 111 209 111 221 0 3 12 31 27 63 15 33 28 65 29 73 2 7 11 34 22 60 11 25 23 63 26 83 3 20 12 54 20 75 19 52 26 73 24 76 -1 1 5 11 15 22 9 11 23 29 31 40 14 18 15 14 15 -45 0 -81 0 -84 36 -148 32 -60 58 -71 103 -48 33 17 82 74 82 95 0 7 5 9 10 6 6 -4 7 -13 2 -23 -5 -9 -7 -27 -6 -39 0 -13 -2 -23 -7 -23 -5 0 -6 -7 -3 -15 4 -8 3 -23 -1 -32 -4 -10 -9 -41 -11 -70 l-5 -51 48 -10 c27 -6 84 -16 128 -23 44 -6 81 -13 82 -14 1 0 10 -35 19 -76 17 -81 25 -175 27 -341 0 -60 4 -108 7 -108 3 0 5 -87 5 -192 -1 -250 11 -533 24 -600 6 -29 13 -64 15 -78 11 -55 15 -71 34 -114 11 -24 18 -47 14 -50 -3 -3 1 -6 8 -6 7 0 11 -3 7 -6 -3 -3 10 -41 28 -85 19 -43 32 -79 30 -79 -2 0 6 -24 19 -52 62 -142 47 -283 -42 -398 -78 -100 -86 -118 -73 -159 17 -57 45 -71 141 -71 45 0 112 5 150 11 64 11 70 10 98 -10 26 -18 44 -21 124 -21 118 0 206 14 238 39 24 17 25 24 25 112 1 52 -2 99 -6 104 -13 19 -23 110 -23 200 1 96 4 113 28 160 14 29 32 72 35 87 1 4 13 33 26 63 14 31 25 62 25 70 0 8 4 15 8 15 5 0 9 6 9 14 0 8 9 36 21 63 11 27 23 60 26 74 2 13 12 44 20 68 9 24 18 53 21 65 2 12 7 32 10 46 6 26 15 108 19 169 2 20 3 187 4 372 l2 336 98 -33 c53 -19 109 -34 123 -34 14 0 32 -6 41 -13 39 -30 44 -153 13 -307 -10 -47 -18 -91 -19 -98 -2 -8 -25 -43 -52 -79 -27 -37 -56 -80 -66 -97 -17 -33 -38 -129 -44 -199 -1 -23 -4 -44 -5 -47 -2 -7 -7 -56 -9 -108 -1 -23 -6 -45 -11 -48 -5 -3 -7 -10 -3 -15 6 -11 -28 -374 -36 -374 -1 0 -3 -26 -5 -58 -5 -73 -24 -179 -35 -192 -15 -19 -3 -81 25 -130 45 -77 133 -177 179 -203 79 -45 244 -16 285 50 16 26 6 85 -22 128 -12 18 -27 42 -33 52 -6 10 -20 29 -32 41 -25 27 -47 84 -62 159 -6 32 -18 64 -26 72 -8 9 -10 17 -5 21 5 3 9 13 9 23 -1 26 10 73 28 123 15 43 20 61 29 105 3 12 16 51 30 88 14 36 23 66 21 66 -3 0 10 45 29 100 19 55 32 100 29 100 -2 0 8 26 22 57 14 32 26 66 27 75 1 10 5 18 9 18 4 0 7 3 6 8 -1 4 10 31 25 59 15 29 27 55 27 58 0 3 11 28 25 55 14 27 25 53 26 57 0 5 9 28 21 53 11 25 21 50 22 57 1 7 5 16 9 19 4 4 7 16 7 26 0 10 12 42 26 70 14 28 27 60 30 72 2 11 11 56 20 99 8 43 13 85 10 93 -3 8 -2 14 3 14 4 0 8 6 8 13 1 29 14 90 24 108 8 16 19 19 56 17 l47 -3 1 -200 c1 -161 5 -212 19 -260 21 -71 22 -73 40 -153 9 -44 12 -92 8 -155 -14 -194 5 -1200 22 -1248 6 -15 14 -56 15 -76 1 -18 58 -54 99 -64 79 -18 216 27 227 74 11 50 11 84 -1 123 -14 46 -57 136 -84 174 -24 33 -34 89 -31 170 3 89 4 100 13 100 4 0 5 9 3 19 -2 11 5 52 16 93 10 40 21 86 24 102 3 16 8 33 10 37 3 4 7 22 9 40 3 19 12 61 21 94 9 33 18 69 20 80 3 20 5 32 26 150 7 37 8 85 3 125 -5 36 -9 72 -10 80 -1 8 -3 17 -4 20 -3 5 -4 12 -15 85 -3 22 -7 85 -9 140 -3 88 -1 105 19 140 12 22 25 59 29 82 3 23 11 54 18 70 23 57 29 113 14 145 -10 22 33 41 129 57 125 21 125 21 88 123 -14 40 -25 82 -25 93 0 29 9 83 17 95 3 5 2 10 -4 10 -10 0 -1 37 24 95 7 17 16 41 20 54 4 14 21 46 36 72 16 25 29 51 29 58 0 6 5 11 10 11 6 0 10 10 10 23 0 12 16 48 35 80 l35 58 0 469 c0 413 -2 470 -16 484 -8 9 -12 16 -8 16 4 0 0 6 -9 12 -16 13 -69 161 -82 229 -3 19 -8 41 -10 49 -2 8 -4 29 -4 47 -1 24 -5 31 -15 27 -15 -6 -34 21 -41 56 -13 66 -77 145 -148 182 -31 16 -60 22 -108 23 l-66 0 5 142 c5 161 -8 242 -58 345 -16 32 -26 58 -24 58 2 0 -7 22 -21 50 -14 27 -24 51 -23 52 2 2 -7 20 -19 40 -26 44 -53 63 -116 80 -41 10 -60 10 -127 -4 -44 -9 -104 -27 -132 -41 -53 -24 -158 -119 -158 -143 0 -7 -4 -14 -9 -16 -9 -3 -121 -163 -121 -173 0 -3 -12 -22 -26 -41 -15 -19 -23 -34 -20 -34 4 0 -2 -13 -13 -29 -18 -24 -34 -58 -48 -96 -2 -5 -11 -40 -21 -77 -9 -38 -21 -68 -26 -68 -4 0 -6 7 -2 15 3 8 1 15 -4 15 -5 0 -7 6 -4 14 3 8 1 17 -5 20 -6 4 -8 13 -5 20 3 7 -5 51 -17 97 -11 46 -22 89 -23 96 -3 18 -50 108 -58 111 -5 2 -8 9 -8 16 0 31 -163 146 -207 146 -21 0 -105 53 -141 90 -64 62 -109 81 -214 88 l-93 7 1 50 c3 118 26 165 81 165 46 0 49 14 46 180 -1 85 -5 165 -8 178 -3 12 -7 31 -9 41 -12 54 -90 162 -141 196 -44 28 -208 32 -286 6z m-3124 -1909 c4 -26 8 -56 9 -67 2 -11 7 -46 11 -79 l7 -58 -66 65 c-48 48 -64 71 -60 84 3 10 17 47 29 83 13 36 27 74 31 85 6 16 9 12 20 -23 7 -24 16 -65 19 -90z m3995 8 c0 -8 13 -37 28 -65 l27 -50 -17 -100 c-10 -55 -19 -112 -21 -127 -3 -41 -21 -28 -23 18 -6 132 -24 352 -31 379 -3 14 2 11 16 -10 12 -16 21 -37 21 -45z m-2817 3 c3 -17 2 -34 -1 -38 -3 -3 -7 -29 -8 -58 -2 -81 -13 -157 -30 -217 -8 -30 -16 -59 -18 -65 -21 -76 -28 -95 -36 -100 -12 -7 -12 -10 0 56 5 30 12 79 16 109 3 30 8 69 11 85 2 17 4 45 5 63 1 17 5 32 9 32 4 0 6 10 4 22 -7 33 28 159 40 146 2 -1 5 -17 8 -35z m4392 -730 c15 -57 27 -112 28 -123 1 -11 5 -20 9 -20 4 0 3 -11 -2 -24 -5 -13 -6 -27 -3 -30 4 -3 1 -6 -6 -6 -7 0 -9 -4 -6 -10 7 -12 -34 -110 -46 -110 -5 0 -6 12 -2 28 9 34 8 43 -7 117 -10 50 -10 170 1 290 1 15 5 1 34 -112z m-1515 -4 c3 -4 30 -23 61 -42 46 -29 57 -41 55 -62 0 -14 -3 -25 -6 -25 -3 0 -6 -14 -7 -32 -3 -34 -28 -122 -44 -151 -5 -10 -7 -22 -4 -27 4 -6 2 -10 -4 -10 -6 0 -9 -6 -6 -12 5 -17 -67 -162 -80 -160 -6 1 -10 104 -11 282 l-1 281 21 -18 c11 -10 23 -21 26 -24z m-1431 -332 c4 -26 5 -47 1 -47 -4 0 -10 -18 -13 -40 -5 -39 -25 -76 -35 -66 -20 21 -5 162 20 194 14 17 16 13 27 -41z m-171 -383 c-4 -3 -2 -18 2 -34 11 -39 3 -67 -23 -74 -12 -3 -23 -3 -26 0 -8 8 31 114 42 114 6 0 8 -3 5 -6z m923 -411 c6 -37 10 -113 14 -253 5 -175 7 -223 21 -390 15 -176 11 -393 -12 -585 -5 -46 -14 -161 -19 -255 -3 -47 -12 -137 -21 -200 -9 -63 -17 -127 -18 -143 0 -15 -3 -27 -6 -27 -3 0 -6 -12 -7 -27 -2 -43 -12 -88 -32 -145 -19 -53 -19 -53 -30 -26 -26 67 -34 224 -44 886 -1 61 -4 112 -7 112 -3 0 -6 28 -7 62 -7 207 -7 260 1 318 5 36 10 88 11 115 1 28 3 50 4 50 1 0 3 90 5 200 2 110 9 226 15 258 l12 57 60 0 c32 0 60 -3 60 -7z"
       id="path4" />
    <path
       d="M6030 2351 c0 -6 4 -13 10 -16 6 -3 7 1 4 9 -7 18 -14 21 -14 7z"
       id="path6" />
    <path
       d="M6019 305 c-1 -3 -2 -8 -3 -12 -1 -5 -5 -15 -10 -23 -7 -12 -6 -13 4 -3 13 12 23 43 14 43 -2 0 -5 -2 -5 -5z"
       id="path8" />
  </g>
</svg>
