<?xml version="1.0" encoding="UTF-8" standalone="no"?>
<svg
   class="svg-icon"
   style="width: 1em; height: 1em;vertical-align: middle;fill: currentColor;overflow: hidden;"
   viewBox="0 0 1024 1024"
   version="1.1"
   id="svg4"
   sodipodi:docname="substation-icon.svg"
   inkscape:export-filename="/home/steve/Documents/OpenTelecomData/web_otd/country/img/kplc-ss-icon.png"
   inkscape:export-xdpi="5"
   inkscape:export-ydpi="5"
   inkscape:version="1.1 (c4e8f9ed74, 2021-05-24)"
   xmlns:inkscape="http://www.inkscape.org/namespaces/inkscape"
   xmlns:sodipodi="http://sodipodi.sourceforge.net/DTD/sodipodi-0.dtd"
   xmlns="http://www.w3.org/2000/svg"
   xmlns:svg="http://www.w3.org/2000/svg">
  <sodipodi:namedview
     id="namedview1023"
     pagecolor="#ffffff"
     bordercolor="#111111"
     borderopacity="1"
     inkscape:pageshadow="0"
     inkscape:pageopacity="0"
     inkscape:pagecheckerboard="1"
     showgrid="false"
     inkscape:zoom="0.73535156"
     inkscape:cx="506.56042"
     inkscape:cy="511.32005"
     inkscape:window-width="1920"
     inkscape:window-height="1026"
     inkscape:window-x="0"
     inkscape:window-y="28"
     inkscape:window-maximized="1"
     inkscape:current-layer="svg4" />
  <defs
     id="defs8" />
  <rect
     style="fill:#000000;fill-opacity:1;stroke-width:35.3;stroke-linecap:round;stroke-linejoin:round;stroke-dashoffset:4.92;paint-order:stroke fill markers"
     id="rect1457"
     width="412.60352"
     height="391.96979"
     x="314.89459"
     y="422.16757" />
  <path
     d="M816 429.9c5.1 0.7 10.5-0.3 15.7 0.2 26.7 2.4 25.1-15.4 25.6-33.6 0.5-18.5-2.7-29.5-25.3-29.2-50 0.8-100-0.4-150.1-1.2-6.4-0.1-15.6 4.4-17.4-7.8-1.7-11.3 4.2-13.7 13.7-14.7 11.3-1.1 19.8-6 19.6-19.6-0.2-13-9.8-15.8-19.3-17.5-7.5-1.3-14-0.2-14.3-11.7-0.3-12.1 6.3-13.2 15-14 10.9-1 18.3-6 18.6-18 0.3-13.9-9.4-18.6-20.3-18.6-14 0.1-13.1-8.1-13-17.4 0.1-12.6 10.1-8.1 16.3-9.7 9.5-2.4 16.9-6.5 17-17.5 0.1-9.5-4.4-16.9-14.2-16.6-22.5 0.6-19.4-14.5-19-28.4 0.4-14-2.4-26.9-19.2-27-17-0.1-19.6 13-19.4 26.8 0.1 4.5-0.1 9 0.1 13.4 0.3 7.3-0.1 13-10.2 13.2-11.2 0.2-18.6 7-18.8 18.1-0.2 12.7 8 18.6 20.3 18.5 9.1-0.1 8.9 6.2 8.5 12.3-0.4 5.3 2.7 13.4-6.8 13.4-12.3 0-20.8 5.2-21.9 17.4-1.2 14.2 9.1 19.3 21.2 20.9 9 1.2 7.4 7.8 7.5 13.5 0.1 5.3 0.5 10.9-7.5 10.7-12.4-0.4-20.6 5.5-21.3 17.9-0.8 12.9 8.6 18.9 19.7 20.3 10.1 1.3 9.4 7.5 9.1 14.3-0.3 9.1-6.9 7.9-12.8 7.9-22.4 0-44.8 0.2-67.2-0.1-6.1-0.1-14.1 2.6-15.1-8.1-0.9-9.2 1.9-13.5 11.8-14.1 11.2-0.7 18-8.4 18-19.2 0.1-11.2-7.2-18.1-18.4-18.4-8.6-0.2-11.7-3.1-11.6-11.8 0.1-8 1.9-12.4 10.8-13 12.3-0.8 19.8-8.4 19.1-20.4-0.7-10.8-8.2-17.6-19.6-17.3-10.1 0.2-10-5.9-10.1-13.1-0.1-7.5 0.4-13.3 10.3-13 11.6 0.3 18.9-6.7 19.6-17.4 0.7-11.1-6.9-18.6-17.9-18.9-12.5-0.3-12.2-7.6-11.8-16.3 0.3-6.7 0.3-13.5-0.2-20.2-0.9-11.7-8-17.5-19.2-17.3-10.4 0.2-16.6 6.5-17.6 16.7-0.8 8.1-0.6 16.4-0.5 24.6 0.1 6.6-0.7 11.7-9.2 12-12.1 0.4-20.5 6.7-20.3 19.1 0.2 12.8 9.2 17.6 21.2 17.8 8.9 0.1 8.4 6.6 8.1 12.7-0.2 5.8 1.4 12.9-7.8 13-12.3 0-20.6 5.8-21.5 17.9-1 13 8.5 18.4 19.8 19.9 9.5 1.3 9.7 7.3 9.6 14.4-0.1 5.9-1 10.3-8.3 10.2-12.3-0.1-20.5 5.9-21.1 18.2-0.6 12.9 9.1 18.3 20.1 19.9 9.7 1.4 9.7 7.2 9.2 14.3-0.6 9.1-7.4 7.8-13.2 7.9-23.2 0.1-46.3 0.4-69.5-0.1-6.3-0.1-15.6 5-17.2-7.7-1.4-11.1 3.6-13.7 13.6-14.9 10-1.1 15.6-8.8 15.8-18.9 0.2-10.3-6-17.4-16-18.3-8.6-0.8-13.7-1.5-13.5-12.3 0.2-10.1 4.2-12.3 13.2-13 10.3-0.8 16.1-8.3 16.2-18.3 0.1-11.2-6.1-18.7-17.7-18.8-8.6-0.1-11.9-2.6-11.7-11.5 0.2-8.4 0.7-14.1 11.7-14.1 11.6 0.1 17.6-8 17.8-19 0.2-10.4-6.6-17.9-16.3-18-14-0.1-13.4-8-13-17.5 0.3-6 0.3-12-0.2-17.9-0.9-11.2-7-18.2-18.4-18.7-11.7-0.4-17.7 7.1-19.4 17.7-1.1 6.6-0.7 13.4-0.3 20.1 0.4 8.8 0.6 16.1-12 16-10.5-0.1-16.5 7.6-17 17.4-0.6 11.3 6.7 18.5 17.5 19.5 10.1 1 11.6 5.9 11.7 14.7 0.1 9.6-4.7 10.8-12.4 11.1-10.8 0.5-16.1 8-16.7 17.7-0.7 10.3 5.6 17.2 15.6 18.8 9.7 1.5 14 5 13.6 15.7-0.4 10.4-6.5 9.3-13.2 10.2-10.3 1.4-15.9 8.6-16.1 18.5-0.2 9 5.1 15.8 14.1 17.9 9.1 2.1 17.9 3.6 14.7 16.5-3.2 12.7-13.4 6.8-20.3 6.9-49.3 1-98.5 1.2-147.8 1.7-8.1 0.1-18.1-1.7-21.5 7.8-5.1 14.3-4.9 30-0.6 44 4.1 13 18.3 10 29.3 10.5 3 0.1 6 0.4 8.9-0.1 16.8-2.9 21.2 3.7 21.1 20.6-0.8 118-0.4 236-0.4 354 0 30.5 0 30.5-30.8 30.6-28.5 0.1-30 1.7-30 30.8s1.5 30.8 29.8 30.9h638.6c11.6 0 24.5 0.1 25.2-15.3 1.9-43.5 3.3-49.2-36.4-46.1-18 1.4-20.5-5.9-20.3-21.7 0.8-72.4 0.4-144.9 0.4-217.3 0-50 0.4-100.1-0.3-150.1-0.2-12.2 2.9-18.1 16.1-16.3zM454.3 756.2c-2.2 8-8.8 9.2-16.2 7.4-6.5 0.4-11.1-3.5-16-6.9-90.8-62.2-91.3-203.6-0.7-266.2 10.8-7.5 23.5-12.2 35.7-17.4 5.8-2.5 12-1.5 15.1 5.4 2.9 6.6 0.5 11.7-5.4 15.1-12.9 7.3-26.8 13.2-38.7 21.8-73.9 53.5-66 176.5 13.6 222.2 7 4 15.4 8.3 12.6 18.6z m7.2 57.5l39.2-176.9-90-0.3 112.1-187.1-1.7 112.1h104.8L461.5 813.7zM683.8 643c-8.3 77.1-74.7 140.2-150.6 143-9.2 0.3-21.7 3.7-22-11.1-0.3-12.6 10.7-11.5 19.8-12.3 64.5-5.7 112.7-47.5 127.4-110.4 13.7-58.7-12.5-118-66.9-150.8-5.7-3.4-12-5.7-18.1-8.3-8.4-3.6-17.9-7-12.7-19 4.8-11.1 13.3-6.6 20.9-3.3 47.7 20.5 81.7 53.9 96.8 104.6 2.5 8.5 3.6 17.4 5.3 26.2 2.2 12 2.7 24 0.1 41.4z"
     id="path2"
     style="fill:#63b136;fill-opacity:1"
     inkscape:export-filename="/home/steve/Documents/OpenTelecomData/web_otd/country/img/ketraco-ss-icon.png"
     inkscape:export-xdpi="72"
     inkscape:export-ydpi="72" />
</svg>
